HIERARCHY
ROOT Hips
{
  OFFSET 0 0 0
  CHANNELS 6 Xposition Yposition Zposition Zrotation Yrotation Xrotation
  JOINT LeftThigh
  {
    OFFSET 8.409438 0 -5.917753
    CHANNELS 3 Zrotation Yrotation Xrotation
    JOINT LeftLeg
    {
      OFFSET 0 0 -42.358652
      CHANNELS 3 Zrotation Yrotation Xrotation
      JOINT LeftFoot
      {
        OFFSET 0 0 -39.357303
        CHANNELS 3 Zrotation Yrotation Xrotation
      }
    }
  }
  JOINT RightThigh
  {
    OFFSET -8.409438 0 -5.917753
    CHANNELS 3 Zrotation Yrotation Xrotation
    JOINT RightLeg
    {
      OFFSET 0 0 -42.358652
      CHANNELS 3 Zrotation Yrotation Xrotation
      JOINT RightFoot
      {
        OFFSET 0 0 -39.357303
        CHANNELS 3 Zrotation Yrotation Xrotation
      }
    }
  }
  JOINT SpineLow
  {
    OFFSET 0 0 4.719101
    CHANNELS 3 Zrotation Yrotation Xrotation
    JOINT SpineMid
    {
      OFFSET 0 0 12.899191
      CHANNELS 3 Zrotation Yrotation Xrotation
      JOINT Chest
      {
        OFFSET 0 0 12.899191
        CHANNELS 3 Zrotation Yrotation Xrotation
        JOINT LeftShoulder
        {
          OFFSET 7.550562 1.41573 9.438202
          CHANNELS 3 Zrotation Yrotation Xrotation
          JOINT LeftArm
          {
            OFFSET 9.155056 0 4.247191
            CHANNELS 3 Zrotation Yrotation Xrotation
            JOINT LeftForearm
            {
              OFFSET 0 0 25.771955
              CHANNELS 3 Zrotation Yrotation Xrotation
              JOINT LeftHand
              {
                OFFSET 0 0 25.197169
                CHANNELS 3 Zrotation Yrotation Xrotation
              }
            }
          }
        }
        JOINT RightShoulder
        {
          OFFSET -7.550562 1.41573 9.438202
          CHANNELS 3 Zrotation Yrotation Xrotation
          JOINT RightArm
          {
            OFFSET -9.155056 0 4.247191
            CHANNELS 3 Zrotation Yrotation Xrotation
            JOINT RightForearm
            {
              OFFSET 0 0 -25.771955
              CHANNELS 3 Zrotation Yrotation Xrotation
              JOINT RightHand
              {
                OFFSET 0 0 -25.197169
                CHANNELS 3 Zrotation Yrotation Xrotation
              }
            }
          }
        }
        JOINT Neck
        {
          OFFSET 0 0 15.101124
          CHANNELS 3 Zrotation Yrotation Xrotation
          JOINT Head
          {
            OFFSET 0 0 11.325843
            CHANNELS 3 Zrotation Yrotation Xrotation
            End Site
            {
              OFFSET 0 0 14.157303
            }
          }
        }
      }
    }
  }
}
MOTION
Frames: 6
Frame Time: 0.0
0.0  89.887642  0.0  -0.090688  -18.06486  -94.661306  -0.166428  -11.005672  8.25635  4.576532  -4.561651  6.182001  2.336982  0.199294  1.573811  -6.539129  10.93528  1.622964  -13.245383  2.16459  -2.182842  -0.20447  -1.249868  -1.403425  -0.3489  -0.051732  0.530012  -0.954767  -0.133748  1.449447  -0.954767  -0.133748  1.449447  -13.012151  22.046226  2.618372  142.51607  47.183493  -166.302393  -0.99725  -3.959391  44.294042  82.476752  -9.774127  1.219157  1.350687  -8.594446  26.319647  96.005888  43.173383  44.111359  3.588663  6.458837  -23.053123  90.595101  13.7288  -17.782288  -2.16093  0.932253  0.497451  -1.621422  0.697442  0.376382  
0.0  89.887642  0.0  -0.195152  -18.097473  -94.759937  0.147052  -11.221699  8.364445  4.452448  -4.512677  6.271306  2.268073  0.183325  1.580959  -6.330852  10.764758  1.731408  -13.322065  2.290133  -1.943301  -0.143629  -1.196649  -1.424545  -0.324191  -0.070696  0.538574  -0.887671  -0.186006  1.473058  -0.887671  -0.186006  1.473059  -12.897821  21.922351  2.665605  142.433747  47.072252  -166.484898  -1.095947  -3.96803  44.078149  82.483103  -9.82038  1.223419  1.250612  -8.516106  26.295993  96.295815  43.029633  44.330408  3.657782  6.545835  -23.006269  90.582584  13.778065  -17.612145  -2.256835  0.892251  0.552807  -1.693401  0.667158  0.417899  
0.0  89.887642  0.0  -0.269178  -18.100364  -94.876587  0.140112  -11.372729  8.333135  4.371042  -4.485926  6.441091  2.315225  0.210891  1.671949  -6.376272  10.648592  1.742861  -13.578125  2.35242  -1.676547  0.198201  -1.112881  -1.41532  -0.312125  -0.088504  0.546755  -0.855117  -0.234842  1.495619  -0.855117  -0.234842  1.49562  -12.510875  21.917692  2.784447  142.527585  47.042714  -166.481299  -1.059883  -3.86906  43.919494  82.613113  -9.837898  1.306495  0.981952  -8.404308  26.183755  96.885488  42.703646  44.653335  3.626026  6.542468  -22.922291  90.356071  13.7919  -17.491659  -2.404495  0.855982  0.59862  -1.804178  0.639644  0.452333  
0.0  89.887642  0.0  -0.287768  -18.11225  -95.034307  0.316699  -11.493717  8.421251  4.315004  -4.41989  6.651523  2.275213  0.203035  1.683841  -6.407473  10.578204  1.761916  -13.501775  2.499137  -1.315378  0.358756  -1.032654  -1.440114  -0.282438  -0.09565  0.555184  -0.77417  -0.254946  1.518641  -0.77417  -0.254946  1.518641  -12.321769  21.851349  2.895777  142.843763  47.026455  -166.319284  -0.814159  -3.759917  43.734329  82.633024  -9.84102  1.259741  0.927883  -8.324032  26.22109  97.004665  42.587332  44.787033  3.5935  6.511488  -22.879232  90.279461  13.803338  -17.381375  -2.524773  0.829352  0.691008  -1.894487  0.619173  0.521684  
0.0  89.887642  0.0  -0.302282  -18.091784  -95.176648  0.18638  -11.599338  8.346214  4.316707  -4.342166  6.953917  2.284872  0.248079  1.72977  -6.699431  10.498356  1.63634  -13.67912  2.629775  -0.930533  0.789814  -0.932566  -1.413628  -0.266251  -0.106018  0.559573  -0.730184  -0.283607  1.530691  -0.730184  -0.283607  1.530691  -12.157728  21.801611  2.963774  142.996817  47.037467  -166.152555  -0.84749  -3.568078  43.447497  82.768182  -9.778818  1.204039  0.734613  -8.228843  26.208502  97.403733  42.318197  45.091413  3.446936  6.45378  -22.87479  90.097852  13.831795  -17.295053  -2.693181  0.81327  0.76434  -2.020872  0.6066  0.576843  
0.0  89.887642  0.0  -0.341473  -18.124956  -95.290213  0.394891  -11.74852  8.366527  4.289727  -4.253529  7.27951  2.178723  0.268722  1.697227  -6.797247  10.354023  1.464946  -13.449566  2.903157  -0.352723  0.894336  -0.826281  -1.449787  -0.223792  -0.117511  0.569461  -0.614445  -0.315911  1.557647  -0.614445  -0.315911  1.557647  -12.079617  21.749609  2.99623  143.317042  47.008753  -165.977779  -0.720094  -3.367108  43.32696  82.91883  -9.700177  1.112951  0.646455  -8.132578  26.23223  97.353968  42.227037  45.105555  3.450729  6.465027  -22.880168  90.012004  13.79855  -17.189264  -2.845158  0.790103  0.825525  -2.134906  0.58875  0.622828  
